# xmcd
#
# Track frame offsets: 
#        150
#        20999
#        41792
#        55229
#        73099
#        97564
#        123982
#        142997
#        162727
#        184082
#        204115
#        227198
#        250401
#        266265
#        290214
#        311014
#        333996
#
# Disc length: 4729 seconds
#
# Revision: 0
# Processed by: cddbd v1.5.2PL0 Copyright (c) Steve Scherf et al.
# Submitted via: ExactAudioCopy v0.99pb4
#
DISCID=fe127711
DTITLE=Eric Clapton - Greatest Hits CD2
DYEAR=2008
DGENRE=Blues
TTITLE0=Layla
TTITLE1=Tears In Heaven
TTITLE2=Motherless Child
TTITLE3=Change The World
TTITLE4=My Father's Eyes
TTITLE5=Piligrim
TTITLE6=Circus
TTITLE7=Get Lost
TTITLE8=Blue Eyes Blue
TTITLE9=Riding With The King
TTITLE10=Believe In Life
TTITLE11=Superman Inside
TTITLE12=If I Had Possession Over Judgement Day
TTITLE13=Sweet Home Chicago
TTITLE14=Say What You Will
TTITLE15=One Track Mino
TTITLE16=Ride the River
EXTD=
EXTT0=
EXTT1=
EXTT2=
EXTT3=
EXTT4=
EXTT5=
EXTT6=
EXTT7=
EXTT8=
EXTT9=
EXTT10=
EXTT11=
EXTT12=
EXTT13=
EXTT14=
EXTT15=
EXTT16=
PLAYORDER=
